<?xml version="1.0" encoding="UTF-8" standalone="no"?>
<!-- Created with Inkscape (http://www.inkscape.org/) -->

<svg
   xmlns:dc="http://purl.org/dc/elements/1.1/"
   xmlns:cc="http://creativecommons.org/ns#"
   xmlns:rdf="http://www.w3.org/1999/02/22-rdf-syntax-ns#"
   xmlns:svg="http://www.w3.org/2000/svg"
   xmlns="http://www.w3.org/2000/svg"
   xmlns:sodipodi="http://sodipodi.sourceforge.net/DTD/sodipodi-0.dtd"
   xmlns:inkscape="http://www.inkscape.org/namespaces/inkscape"
   version="1.1"
   id="svg2"
   xml:space="preserve"
   width="1386.0674"
   height="1079.9999"
   viewBox="0 0 1386.0674 1079.9999"
   sodipodi:docname="Aparyapta Logo.svg"
   inkscape:version="0.92.5 (2060ec1f9f, 2020-04-08)"><metadata
     id="metadata8"><rdf:RDF><cc:Work
         rdf:about=""><dc:format>image/svg+xml</dc:format><dc:type
           rdf:resource="http://purl.org/dc/dcmitype/StillImage" /><dc:title></dc:title></cc:Work></rdf:RDF></metadata><defs
     id="defs6"><clipPath
       clipPathUnits="userSpaceOnUse"
       id="clipPath18"><path
         d="M 0,0 H 6000 V 3406.25 H 0 Z"
         id="path16"
         inkscape:connector-curvature="0"
         style="clip-rule:evenodd" /></clipPath><clipPath
       clipPathUnits="userSpaceOnUse"
       id="clipPath32"><path
         d="M 0,0 H 6000 V 3375 H 0 Z"
         id="path30"
         inkscape:connector-curvature="0"
         style="clip-rule:evenodd" /></clipPath><clipPath
       clipPathUnits="userSpaceOnUse"
       id="clipPath44"><path
         d="M 563.36005,1522.2561 H 2378.985 v 1790.625 H 563.36005 Z"
         id="path42"
         inkscape:connector-curvature="0"
         style="clip-rule:evenodd" /></clipPath><clipPath
       clipPathUnits="userSpaceOnUse"
       id="clipPath56"><path
         d="m 2770.7385,1447.3982 h 1887.4998 v 1800 H 2770.7385 Z"
         id="path54"
         inkscape:connector-curvature="0"
         style="clip-rule:evenodd" /></clipPath><clipPath
       clipPathUnits="userSpaceOnUse"
       id="clipPath68"><path
         d="M 0,0 H 6000 V 3375 H 0 Z"
         id="path66"
         inkscape:connector-curvature="0"
         style="clip-rule:evenodd" /></clipPath><clipPath
       clipPathUnits="userSpaceOnUse"
       id="clipPath80"><path
         d="M 0,0 H 6000 V 3406.25 H 0 Z"
         id="path78"
         inkscape:connector-curvature="0" /></clipPath><clipPath
       clipPathUnits="userSpaceOnUse"
       id="clipPath86"><path
         d="M 0,0 H 6000 V 3375 H 0 Z"
         id="path84"
         inkscape:connector-curvature="0" /></clipPath><clipPath
       clipPathUnits="userSpaceOnUse"
       id="clipPath92"><path
         d="M 4147.3887,-1086.5625 5170.3223,-453.22485 3219.3132,2697.9421 2196.3796,2064.6045 Z"
         id="path90"
         inkscape:connector-curvature="0" /></clipPath><clipPath
       clipPathUnits="userSpaceOnUse"
       id="clipPath98"><path
         d="M 4184.3931,-1146.3298 7396.6704,842.51489 5407.8257,4054.7922 2195.5483,2065.9475 Z"
         id="path96"
         inkscape:connector-curvature="0" /></clipPath><clipPath
       clipPathUnits="userSpaceOnUse"
       id="clipPath110"><path
         d="M 0,0 H 6000 V 3375 H 0 Z"
         id="path108"
         inkscape:connector-curvature="0"
         style="clip-rule:evenodd" /></clipPath><clipPath
       clipPathUnits="userSpaceOnUse"
       id="clipPath122"><path
         d="M 0,0 H 6000 V 3406.25 H 0 Z"
         id="path120"
         inkscape:connector-curvature="0" /></clipPath><clipPath
       clipPathUnits="userSpaceOnUse"
       id="clipPath128"><path
         d="M 0,0 H 6000 V 3375 H 0 Z"
         id="path126"
         inkscape:connector-curvature="0" /></clipPath><clipPath
       clipPathUnits="userSpaceOnUse"
       id="clipPath134"><path
         d="m 1789.913,2622.2488 72.2666,-542.0791 851.8385,113.5617 -72.2666,542.0791 z"
         id="path132"
         inkscape:connector-curvature="0" /></clipPath><clipPath
       clipPathUnits="userSpaceOnUse"
       id="clipPath140"><path
         d="M -22.087662,3571.4771 461.47913,-55.806641 4088.7629,427.76025 3605.196,4055.0439 Z"
         id="path138"
         inkscape:connector-curvature="0" /></clipPath><clipPath
       clipPathUnits="userSpaceOnUse"
       id="clipPath152"><path
         d="M 0,0 H 6000 V 3406.25 H 0 Z"
         id="path150"
         inkscape:connector-curvature="0" /></clipPath><clipPath
       clipPathUnits="userSpaceOnUse"
       id="clipPath158"><path
         d="M 0,0 H 6000 V 3375 H 0 Z"
         id="path156"
         inkscape:connector-curvature="0" /></clipPath><clipPath
       clipPathUnits="userSpaceOnUse"
       id="clipPath164"><path
         d="m 1977.1287,2883.5938 116.1272,-534.4031 839.7763,182.4856 -116.1272,534.4033 z"
         id="path162"
         inkscape:connector-curvature="0" /></clipPath><clipPath
       clipPathUnits="userSpaceOnUse"
       id="clipPath170"><path
         d="M 93.910873,3682.2625 870.96826,106.34204 4446.8882,883.39941 3669.8313,4459.3198 Z"
         id="path168"
         inkscape:connector-curvature="0" /></clipPath><clipPath
       clipPathUnits="userSpaceOnUse"
       id="clipPath182"><path
         d="M 0,0 H 6000 V 3406.25 H 0 Z"
         id="path180"
         inkscape:connector-curvature="0" /></clipPath><clipPath
       clipPathUnits="userSpaceOnUse"
       id="clipPath188"><path
         d="M 0,0 H 6000 V 3375 H 0 Z"
         id="path186"
         inkscape:connector-curvature="0" /></clipPath><clipPath
       clipPathUnits="userSpaceOnUse"
       id="clipPath194"><path
         d="m 2590.8518,2649.8018 375.9612,63.2829 -84.0313,499.2271 -375.9614,-63.283 z"
         id="path192"
         inkscape:connector-curvature="0" /></clipPath><clipPath
       clipPathUnits="userSpaceOnUse"
       id="clipPath200"><path
         d="M 1463.0243,1296.684 5071.6357,1904.0961 4464.2236,5512.7075 855.61218,4905.2954 Z"
         id="path198"
         inkscape:connector-curvature="0" /></clipPath><clipPath
       clipPathUnits="userSpaceOnUse"
       id="clipPath212"><path
         d="M 0,0 H 6000 V 3406.25 H 0 Z"
         id="path210"
         inkscape:connector-curvature="0" /></clipPath><clipPath
       clipPathUnits="userSpaceOnUse"
       id="clipPath218"><path
         d="M 0,0 H 6000 V 3375 H 0 Z"
         id="path216"
         inkscape:connector-curvature="0" /></clipPath><clipPath
       clipPathUnits="userSpaceOnUse"
       id="clipPath224"><path
         d="m 2166.7507,2503.2346 121.8975,-651.1891 651.189,121.8974 -121.8973,651.1892 z"
         id="path222"
         inkscape:connector-curvature="0" /></clipPath><clipPath
       clipPathUnits="userSpaceOnUse"
       id="clipPath230"><path
         d="M 870.66992,4116.8628 1553.7553,467.74658 5202.8716,1150.832 4519.7861,4799.9482 Z"
         id="path228"
         inkscape:connector-curvature="0" /></clipPath><clipPath
       clipPathUnits="userSpaceOnUse"
       id="clipPath242"><path
         d="M 0,0 H 6000 V 3406.25 H 0 Z"
         id="path240"
         inkscape:connector-curvature="0" /></clipPath><clipPath
       clipPathUnits="userSpaceOnUse"
       id="clipPath248"><path
         d="M 0,0 H 6000 V 3375 H 0 Z"
         id="path246"
         inkscape:connector-curvature="0" /></clipPath><clipPath
       clipPathUnits="userSpaceOnUse"
       id="clipPath254"><path
         d="m 2224.1157,1858.4662 165.658,-343.3788 455.9621,219.9722 -165.6582,343.3786 z"
         id="path252"
         inkscape:connector-curvature="0" /></clipPath><clipPath
       clipPathUnits="userSpaceOnUse"
       id="clipPath260"><path
         d="M 3132.8149,3781.0718 4722.8604,485.19824 1426.9868,-1104.8472 -163.05859,2191.0264 Z"
         id="path258"
         inkscape:connector-curvature="0" /></clipPath><clipPath
       clipPathUnits="userSpaceOnUse"
       id="clipPath272"><path
         d="M 617.64978,1639.8838 H 2433.2749 V 3375 H 617.64978 Z"
         id="path270"
         inkscape:connector-curvature="0"
         style="clip-rule:evenodd" /></clipPath><clipPath
       clipPathUnits="userSpaceOnUse"
       id="clipPath284"><path
         d="m 2825.0283,1565.0259 h 1887.5 v 1800 h -1887.5 z"
         id="path282"
         inkscape:connector-curvature="0"
         style="clip-rule:evenodd" /></clipPath><clipPath
       clipPathUnits="userSpaceOnUse"
       id="clipPath296"><path
         d="M 0,0 H 6000 V 3375 H 0 Z"
         id="path294"
         inkscape:connector-curvature="0"
         style="clip-rule:evenodd" /></clipPath><clipPath
       clipPathUnits="userSpaceOnUse"
       id="clipPath308"><path
         d="M 0,0 H 6000 V 3406.25 H 0 Z"
         id="path306"
         inkscape:connector-curvature="0" /></clipPath><clipPath
       clipPathUnits="userSpaceOnUse"
       id="clipPath314"><path
         d="M 0,0 H 6000 V 3375 H 0 Z"
         id="path312"
         inkscape:connector-curvature="0" /></clipPath><clipPath
       clipPathUnits="userSpaceOnUse"
       id="clipPath320"><path
         d="M 4201.6787,-968.93475 5224.6123,-335.59711 3273.6033,2815.5698 2250.6697,2182.2322 Z"
         id="path318"
         inkscape:connector-curvature="0" /></clipPath><clipPath
       clipPathUnits="userSpaceOnUse"
       id="clipPath326"><path
         d="M 4238.6831,-1028.7022 7450.9604,960.14258 5462.1157,4172.4199 2249.8384,2183.5752 Z"
         id="path324"
         inkscape:connector-curvature="0" /></clipPath><clipPath
       clipPathUnits="userSpaceOnUse"
       id="clipPath338"><path
         d="M 0,0 H 6000 V 3375 H 0 Z"
         id="path336"
         inkscape:connector-curvature="0"
         style="clip-rule:evenodd" /></clipPath><clipPath
       clipPathUnits="userSpaceOnUse"
       id="clipPath350"><path
         d="M 0,0 H 6000 V 3406.25 H 0 Z"
         id="path348"
         inkscape:connector-curvature="0" /></clipPath><clipPath
       clipPathUnits="userSpaceOnUse"
       id="clipPath356"><path
         d="M 0,0 H 6000 V 3375 H 0 Z"
         id="path354"
         inkscape:connector-curvature="0" /></clipPath><clipPath
       clipPathUnits="userSpaceOnUse"
       id="clipPath362"><path
         d="m 1844.2028,2739.8765 72.2666,-542.0791 851.8387,113.5617 -72.2666,542.0791 z"
         id="path360"
         inkscape:connector-curvature="0" /></clipPath><clipPath
       clipPathUnits="userSpaceOnUse"
       id="clipPath368"><path
         d="M 32.202133,3689.1045 515.76892,61.820801 4143.0527,545.3877 3659.4858,4172.6714 Z"
         id="path366"
         inkscape:connector-curvature="0" /></clipPath><clipPath
       clipPathUnits="userSpaceOnUse"
       id="clipPath380"><path
         d="M 0,0 H 6000 V 3406.25 H 0 Z"
         id="path378"
         inkscape:connector-curvature="0" /></clipPath><clipPath
       clipPathUnits="userSpaceOnUse"
       id="clipPath386"><path
         d="M 0,0 H 6000 V 3375 H 0 Z"
         id="path384"
         inkscape:connector-curvature="0" /></clipPath><clipPath
       clipPathUnits="userSpaceOnUse"
       id="clipPath392"><path
         d="m 2031.4185,3001.2214 116.1272,-534.403 839.7763,182.4856 -116.1272,534.403 z"
         id="path390"
         inkscape:connector-curvature="0" /></clipPath><clipPath
       clipPathUnits="userSpaceOnUse"
       id="clipPath398"><path
         d="M 148.20067,3799.8899 925.25806,223.96948 4501.1782,1001.0269 3724.1211,4576.9473 Z"
         id="path396"
         inkscape:connector-curvature="0" /></clipPath><clipPath
       clipPathUnits="userSpaceOnUse"
       id="clipPath410"><path
         d="M 0,0 H 6000 V 3406.25 H 0 Z"
         id="path408"
         inkscape:connector-curvature="0" /></clipPath><clipPath
       clipPathUnits="userSpaceOnUse"
       id="clipPath416"><path
         d="M 0,0 H 6000 V 3375 H 0 Z"
         id="path414"
         inkscape:connector-curvature="0" /></clipPath><clipPath
       clipPathUnits="userSpaceOnUse"
       id="clipPath422"><path
         d="m 2645.1414,2767.4294 375.9611,63.283 -84.0312,499.2271 -375.9614,-63.2828 z"
         id="path420"
         inkscape:connector-curvature="0" /></clipPath><clipPath
       clipPathUnits="userSpaceOnUse"
       id="clipPath428"><path
         d="M 1517.3138,1414.3117 5125.9253,2021.7238 4518.5132,5630.335 909.90173,5022.9229 Z"
         id="path426"
         inkscape:connector-curvature="0" /></clipPath><clipPath
       clipPathUnits="userSpaceOnUse"
       id="clipPath440"><path
         d="M 0,0 H 6000 V 3406.25 H 0 Z"
         id="path438"
         inkscape:connector-curvature="0" /></clipPath><clipPath
       clipPathUnits="userSpaceOnUse"
       id="clipPath446"><path
         d="M 0,0 H 6000 V 3375 H 0 Z"
         id="path444"
         inkscape:connector-curvature="0" /></clipPath><clipPath
       clipPathUnits="userSpaceOnUse"
       id="clipPath452"><path
         d="m 2221.0405,2620.8623 121.8975,-651.1891 651.189,121.8974 -121.8975,651.1892 z"
         id="path450"
         inkscape:connector-curvature="0" /></clipPath><clipPath
       clipPathUnits="userSpaceOnUse"
       id="clipPath458"><path
         d="M 924.95972,4234.4902 1608.045,585.37402 5257.1611,1268.4595 4574.0762,4917.5757 Z"
         id="path456"
         inkscape:connector-curvature="0" /></clipPath><clipPath
       clipPathUnits="userSpaceOnUse"
       id="clipPath470"><path
         d="M 0,0 H 6000 V 3406.25 H 0 Z"
         id="path468"
         inkscape:connector-curvature="0" /></clipPath><clipPath
       clipPathUnits="userSpaceOnUse"
       id="clipPath476"><path
         d="M 0,0 H 6000 V 3375 H 0 Z"
         id="path474"
         inkscape:connector-curvature="0" /></clipPath><clipPath
       clipPathUnits="userSpaceOnUse"
       id="clipPath482"><path
         d="m 2278.4055,1976.0939 165.658,-343.3788 455.9619,219.9722 -165.658,343.3786 z"
         id="path480"
         inkscape:connector-curvature="0" /></clipPath><clipPath
       clipPathUnits="userSpaceOnUse"
       id="clipPath488"><path
         d="M 3187.1045,3898.6995 4777.1499,602.82593 1481.2764,-987.21948 -108.76904,2308.6541 Z"
         id="path486"
         inkscape:connector-curvature="0" /></clipPath><clipPath
       clipPathUnits="userSpaceOnUse"
       id="clipPath1301"><rect
         style="opacity:0.58800001;fill:#00ff00;stroke-width:3.111763"
         id="rect1303"
         width="4331.4609"
         height="3438.2029"
         x="505.61804"
         y="-29.494549" /></clipPath><clipPath
       clipPathUnits="userSpaceOnUse"
       id="clipPath1307"><rect
         style="opacity:0.58800001;fill:#00ff00;stroke-width:3.00655222"
         id="rect1309"
         width="4331.4604"
         height="3455.0562"
         x="505.61804"
         y="-31.952631" /></clipPath></defs><sodipodi:namedview
     pagecolor="#ffffff"
     bordercolor="#666666"
     borderopacity="1"
     objecttolerance="10"
     gridtolerance="10"
     guidetolerance="10"
     inkscape:pageopacity="0"
     inkscape:pageshadow="2"
     inkscape:window-width="1544"
     inkscape:window-height="836"
     id="namedview4"
     showgrid="false"
     fit-margin-top="0"
     fit-margin-left="0"
     fit-margin-right="0"
     fit-margin-bottom="0"
     inkscape:zoom="0.18541667"
     inkscape:cx="703.82021"
     inkscape:cy="540.00004"
     inkscape:window-x="56"
     inkscape:window-y="27"
     inkscape:window-maximized="1"
     inkscape:current-layer="g10" /><g
     id="g10"
     inkscape:groupmode="layer"
     inkscape:label="Aparyapta Logo"
     transform="matrix(0.31999998,0,0,0.31999998,-161.79776,0)"><g
       id="g12"
       clip-path="url(#clipPath1307)"><g
         id="g14"
         clip-path="url(#clipPath18)"><g
           id="g20"
           transform="scale(3.125)"><path
             d="M 0,0 H 1920 V 1090 H 0 Z"
             style="fill:#ffffff;fill-opacity:1;fill-rule:nonzero;stroke:none"
             id="path22"
             inkscape:connector-curvature="0" /><path
             d="M 0,0 H 1920 V 1080 H 0 Z"
             style="fill:#ffffff;fill-opacity:1;fill-rule:nonzero;stroke:none"
             id="path24"
             inkscape:connector-curvature="0" /></g></g></g><g
       id="g26"
       clip-path="url(#clipPath1301)"><g
         id="g28"
         clip-path="url(#clipPath32)"><g
           id="g34"
           transform="scale(3.125)"><path
             d="M 0,0 H 1920 V 1080 H 0 Z"
             style="fill:#ffffff;fill-opacity:1;fill-rule:nonzero;stroke:none"
             id="path36"
             inkscape:connector-curvature="0" /></g></g></g><g
       id="g38"><g
         id="g40"
         clip-path="url(#clipPath44)"><g
           id="g46"
           transform="matrix(24.359617,0,0,-24.359617,563.36005,4242.9536)"><path
             d="M 115.885,38.631001 C 94.572998,38.631001 80.469002,56.056 68.026001,71.432999 57.395,84.569 47.356003,96.973 35.129002,96.973 c -12.709,0 -20.511999,-13.062005 -20.511999,-22.426003 0,-8.681999 8.559999,-21.299 21.975999,-21.299 13.017998,0 19.8,10.418999 20.141999,10.952999 2.109001,3.413002 6.586998,4.487 10.016998,2.394997 3.446998,-2.099998 4.539001,-6.597 2.438003,-10.043999 C 68.744003,55.821995 58.023003,38.631996 36.593002,38.631996 15.029,38.632 0,57.562 0,74.547997 0,92.069 14.427,111.591 35.127998,111.591 54.326996,111.591 67.068001,95.850998 79.386993,80.627998 90.78299,66.549995 101.54799,53.249001 115.885,53.249001 c 8.52999,0 14.13499,2.894001 17.13099,8.84 2.59599,5.16 2.59399,10.998996 2.592,13.021999 0,1.160004 -0.61301,6.977997 -3.45101,12.217003 -3.23599,5.968002 -7.83,8.746002 -14.469,8.746002 -13.369,0 -20.592002,-8.690002 -23.312003,-11.962997 -0.707001,-0.851998 -1.216004,-1.464997 -1.895997,-2.046997 -3.061996,-2.623001 -7.678001,-2.270996 -10.305999,0.794998 -2.533997,2.957001 -2.290001,7.352997 0.477997,10.014 0.132003,0.150001 0.291,0.347 0.480003,0.575996 3.544998,4.265999 14.323997,17.239995 34.552999,17.239995 24.586,0 32.537,-23.972997 32.537,-35.677998 0.002,-7.455002 -1.39399,-14.013001 -4.154,-19.496003 -3.87499,-7.7 -12.25897,-16.883998 -30.18298,-16.883998 z"
             style="fill:#737373;fill-opacity:1;fill-rule:nonzero;stroke:none"
             id="path48"
             inkscape:connector-curvature="0" /></g></g></g><g
       id="g50"><g
         id="g52"
         clip-path="url(#clipPath56)"><g
           id="g58"
           transform="matrix(24.713261,0,0,-24.713261,946.18604,4192.3916)"><path
             d="M 115.885,38.631001 C 94.572998,38.631001 80.469002,56.056 68.026001,71.432999 57.395,84.569 47.356003,96.973 35.129002,96.973 c -12.709,0 -20.511999,-13.062005 -20.511999,-22.426003 0,-8.681999 8.559999,-21.299 21.975999,-21.299 13.017998,0 19.8,10.418999 20.141999,10.952999 2.109001,3.413002 6.586998,4.487 10.016998,2.394997 3.446998,-2.099998 4.539001,-6.597 2.438003,-10.043999 C 68.744003,55.821995 58.023003,38.631996 36.593002,38.631996 15.029,38.632 0,57.562 0,74.547997 0,92.069 14.427,111.591 35.127998,111.591 54.326996,111.591 67.068001,95.850998 79.386993,80.627998 90.78299,66.549995 101.54799,53.249001 115.885,53.249001 c 8.52999,0 14.13499,2.894001 17.13099,8.84 2.59599,5.16 2.59399,10.998996 2.592,13.021999 0,1.160004 -0.61301,6.977997 -3.45101,12.217003 -3.23599,5.968002 -7.83,8.746002 -14.469,8.746002 -13.369,0 -20.592002,-8.690002 -23.312003,-11.962997 -0.707001,-0.851998 -1.216004,-1.464997 -1.895997,-2.046997 -3.061996,-2.623001 -7.678001,-2.270996 -10.305999,0.794998 -2.533997,2.957001 -2.290001,7.352997 0.477997,10.014 0.132003,0.150001 0.291,0.347 0.480003,0.575996 3.544998,4.265999 14.323997,17.239995 34.552999,17.239995 24.586,0 32.537,-23.972997 32.537,-35.677998 0.002,-7.455002 -1.39399,-14.013001 -4.154,-19.496003 -3.87499,-7.7 -12.25897,-16.883998 -30.18298,-16.883998 z"
             style="fill:#737373;fill-opacity:1;fill-rule:nonzero;stroke:none"
             id="path60"
             inkscape:connector-curvature="0" /></g></g></g><g
       id="g62"><g
         id="g64"
         clip-path="url(#clipPath68)"><g
           id="g70"
           transform="matrix(4.6246367,0,0,4.6384544,2929.3174,1431.7732)"><path
             d="M 0,0 H 182.4465 V 167.75525 H 0 Z"
             style="fill:#ffffff;fill-opacity:1;fill-rule:nonzero;stroke:none"
             id="path72"
             inkscape:connector-curvature="0" /></g></g></g><g
       id="g74"><g
         id="g76"
         clip-path="url(#clipPath80)"><g
           id="g82"
           clip-path="url(#clipPath86)"><g
             id="g88"
             clip-path="url(#clipPath92)"><g
               id="g94"
               clip-path="url(#clipPath98)"><g
                 id="g100"
                 transform="matrix(21.38339,13.239282,-13.239282,21.38339,4184.3931,-1146.3298)"><path
                   d="M 115.885,38.631001 C 94.572998,38.631001 80.469002,56.056 68.026001,71.432999 57.395,84.569 47.356003,96.973 35.129002,96.973 c -12.709,0 -20.511999,-13.062005 -20.511999,-22.426003 0,-8.681999 8.559999,-21.299 21.975999,-21.299 13.017998,0 19.8,10.418999 20.141999,10.952999 2.109001,3.413002 6.586998,4.487 10.016998,2.394997 3.446998,-2.099998 4.539001,-6.597 2.438003,-10.043999 C 68.744003,55.821995 58.023003,38.631996 36.593002,38.631996 15.029,38.632 0,57.562 0,74.547997 0,92.069 14.427,111.591 35.127998,111.591 54.326996,111.591 67.068001,95.850998 79.386993,80.627998 90.78299,66.549995 101.54799,53.249001 115.885,53.249001 c 8.52999,0 14.13499,2.894001 17.13099,8.84 2.59599,5.16 2.59399,10.998996 2.592,13.021999 0,1.160004 -0.61301,6.977997 -3.45101,12.217003 -3.23599,5.968002 -7.83,8.746002 -14.469,8.746002 -13.369,0 -20.592002,-8.690002 -23.312003,-11.962997 -0.707001,-0.851998 -1.216004,-1.464997 -1.895997,-2.046997 -3.061996,-2.623001 -7.678001,-2.270996 -10.305999,0.794998 -2.533997,2.957001 -2.290001,7.352997 0.477997,10.014 0.132003,0.150001 0.291,0.347 0.480003,0.575996 3.544998,4.265999 14.323997,17.239995 34.552999,17.239995 24.586,0 32.537,-23.972997 32.537,-35.677998 0.002,-7.455002 -1.39399,-14.013001 -4.154,-19.496003 -3.87499,-7.7 -12.25897,-16.883998 -30.18298,-16.883998 z"
                   style="fill:#737373;fill-opacity:1;fill-rule:nonzero;stroke:none"
                   id="path102"
                   inkscape:connector-curvature="0" /></g></g></g></g></g></g><g
       id="g104"><g
         id="g106"
         clip-path="url(#clipPath110)"><g
           id="g112"
           transform="matrix(6.398283,7.0631056,-7.0732536,6.4074755,4168.6836,-218.05373)"><path
             d="m 18.5,66.800003 c -2.4,0 -4.8,-0.5 -7.2,-1.5 -9.3999994,-4 -13.8,-14.799999 -9.8,-24.200001 C 12,16.1 36.299999,0 63.400002,0 90.5,0 114.8,16.1 125.4,41.099998 c 3.99999,9.400002 -0.4,20.3 -9.8,24.200005 -9.4,4 -20.299997,-0.400001 -24.200006,-9.799999 C 86.599998,44.299999 75.599998,37 63.400002,37 51.200005,37 40.300003,44.299999 35.5,55.5 c -2.900002,7 -9.799999,11.300003 -17,11.300003 z"
             style="fill:#737373;fill-opacity:1;fill-rule:nonzero;stroke:none"
             id="path114"
             inkscape:connector-curvature="0" /></g></g></g><g
       id="g116"><g
         id="g118"
         clip-path="url(#clipPath122)"><g
           id="g124"
           clip-path="url(#clipPath128)"><g
             id="g130"
             clip-path="url(#clipPath134)"><g
               id="g136"
               clip-path="url(#clipPath140)"><g
                 id="g142"
                 transform="matrix(3.2189927,-24.145992,24.145992,3.2189927,-22.087662,3571.4771)"><path
                   d="M 115.885,38.631001 C 94.572998,38.631001 80.469002,56.056 68.026001,71.432999 57.395,84.569 47.356003,96.973 35.129002,96.973 c -12.709,0 -20.511999,-13.062005 -20.511999,-22.426003 0,-8.681999 8.559999,-21.299 21.975999,-21.299 13.017998,0 19.8,10.418999 20.141999,10.952999 2.109001,3.413002 6.586998,4.487 10.016998,2.394997 3.446998,-2.099998 4.539001,-6.597 2.438003,-10.043999 C 68.744003,55.821995 58.023003,38.631996 36.593002,38.631996 15.029,38.632 0,57.562 0,74.547997 0,92.069 14.427,111.591 35.127998,111.591 54.326996,111.591 67.068001,95.850998 79.386993,80.627998 90.78299,66.549995 101.54799,53.249001 115.885,53.249001 c 8.52999,0 14.13499,2.894001 17.13099,8.84 2.59599,5.16 2.59399,10.998996 2.592,13.021999 0,1.160004 -0.61301,6.977997 -3.45101,12.217003 -3.23599,5.968002 -7.83,8.746002 -14.469,8.746002 -13.369,0 -20.592002,-8.690002 -23.312003,-11.962997 -0.707001,-0.851998 -1.216004,-1.464997 -1.895997,-2.046997 -3.061996,-2.623001 -7.678001,-2.270996 -10.305999,0.794998 -2.533997,2.957001 -2.290001,7.352997 0.477997,10.014 0.132003,0.150001 0.291,0.347 0.480003,0.575996 3.544998,4.265999 14.323997,17.239995 34.552999,17.239995 24.586,0 32.537,-23.972997 32.537,-35.677998 0.002,-7.455002 -1.39399,-14.013001 -4.154,-19.496003 -3.87499,-7.7 -12.25897,-16.883998 -30.18298,-16.883998 z"
                   style="fill:#737373;fill-opacity:1;fill-rule:nonzero;stroke:none"
                   id="path144"
                   inkscape:connector-curvature="0" /></g></g></g></g></g></g><g
       id="g146"><g
         id="g148"
         clip-path="url(#clipPath152)"><g
           id="g154"
           clip-path="url(#clipPath158)"><g
             id="g160"
             clip-path="url(#clipPath164)"><g
               id="g166"
               clip-path="url(#clipPath170)"><g
                 id="g172"
                 transform="matrix(5.1726918,-23.804079,23.804079,5.1726918,93.910873,3682.2625)"><path
                   d="M 115.885,38.631001 C 94.572998,38.631001 80.469002,56.056 68.026001,71.432999 57.395,84.569 47.356003,96.973 35.129002,96.973 c -12.709,0 -20.511999,-13.062005 -20.511999,-22.426003 0,-8.681999 8.559999,-21.299 21.975999,-21.299 13.017998,0 19.8,10.418999 20.141999,10.952999 2.109001,3.413002 6.586998,4.487 10.016998,2.394997 3.446998,-2.099998 4.539001,-6.597 2.438003,-10.043999 C 68.744003,55.821995 58.023003,38.631996 36.593002,38.631996 15.029,38.632 0,57.562 0,74.547997 0,92.069 14.427,111.591 35.127998,111.591 54.326996,111.591 67.068001,95.850998 79.386993,80.627998 90.78299,66.549995 101.54799,53.249001 115.885,53.249001 c 8.52999,0 14.13499,2.894001 17.13099,8.84 2.59599,5.16 2.59399,10.998996 2.592,13.021999 0,1.160004 -0.61301,6.977997 -3.45101,12.217003 -3.23599,5.968002 -7.83,8.746002 -14.469,8.746002 -13.369,0 -20.592002,-8.690002 -23.312003,-11.962997 -0.707001,-0.851998 -1.216004,-1.464997 -1.895997,-2.046997 -3.061996,-2.623001 -7.678001,-2.270996 -10.305999,0.794998 -2.533997,2.957001 -2.290001,7.352997 0.477997,10.014 0.132003,0.150001 0.291,0.347 0.480003,0.575996 3.544998,4.265999 14.323997,17.239995 34.552999,17.239995 24.586,0 32.537,-23.972997 32.537,-35.677998 0.002,-7.455002 -1.39399,-14.013001 -4.154,-19.496003 -3.87499,-7.7 -12.25897,-16.883998 -30.18298,-16.883998 z"
                   style="fill:#737373;fill-opacity:1;fill-rule:nonzero;stroke:none"
                   id="path174"
                   inkscape:connector-curvature="0" /></g></g></g></g></g></g><g
       id="g176"><g
         id="g178"
         clip-path="url(#clipPath182)"><g
           id="g184"
           clip-path="url(#clipPath188)"><g
             id="g190"
             clip-path="url(#clipPath194)"><g
               id="g196"
               clip-path="url(#clipPath200)"><g
                 id="g202"
                 transform="matrix(24.021694,4.0434022,-4.0434022,24.021694,1463.0243,1296.684)"><path
                   d="M 115.885,38.631001 C 94.572998,38.631001 80.469002,56.056 68.026001,71.432999 57.395,84.569 47.356003,96.973 35.129002,96.973 c -12.709,0 -20.511999,-13.062005 -20.511999,-22.426003 0,-8.681999 8.559999,-21.299 21.975999,-21.299 13.017998,0 19.8,10.418999 20.141999,10.952999 2.109001,3.413002 6.586998,4.487 10.016998,2.394997 3.446998,-2.099998 4.539001,-6.597 2.438003,-10.043999 C 68.744003,55.821995 58.023003,38.631996 36.593002,38.631996 15.029,38.632 0,57.562 0,74.547997 0,92.069 14.427,111.591 35.127998,111.591 54.326996,111.591 67.068001,95.850998 79.386993,80.627998 90.78299,66.549995 101.54799,53.249001 115.885,53.249001 c 8.52999,0 14.13499,2.894001 17.13099,8.84 2.59599,5.16 2.59399,10.998996 2.592,13.021999 0,1.160004 -0.61301,6.977997 -3.45101,12.217003 -3.23599,5.968002 -7.83,8.746002 -14.469,8.746002 -13.369,0 -20.592002,-8.690002 -23.312003,-11.962997 -0.707001,-0.851998 -1.216004,-1.464997 -1.895997,-2.046997 -3.061996,-2.623001 -7.678001,-2.270996 -10.305999,0.794998 -2.533997,2.957001 -2.290001,7.352997 0.477997,10.014 0.132003,0.150001 0.291,0.347 0.480003,0.575996 3.544998,4.265999 14.323997,17.239995 34.552999,17.239995 24.586,0 32.537,-23.972997 32.537,-35.677998 0.002,-7.455002 -1.39399,-14.013001 -4.154,-19.496003 -3.87499,-7.7 -12.25897,-16.883998 -30.18298,-16.883998 z"
                   style="fill:#737373;fill-opacity:1;fill-rule:nonzero;stroke:none"
                   id="path204"
                   inkscape:connector-curvature="0" /></g></g></g></g></g></g><g
       id="g206"><g
         id="g208"
         clip-path="url(#clipPath212)"><g
           id="g214"
           clip-path="url(#clipPath218)"><g
             id="g220"
             clip-path="url(#clipPath224)"><g
               id="g226"
               clip-path="url(#clipPath230)"><g
                 id="g232"
                 transform="matrix(4.547142,-24.291328,24.291328,4.547142,870.66992,4116.8628)"><path
                   d="M 115.885,38.631001 C 94.572998,38.631001 80.469002,56.056 68.026001,71.432999 57.395,84.569 47.356003,96.973 35.129002,96.973 c -12.709,0 -20.511999,-13.062005 -20.511999,-22.426003 0,-8.681999 8.559999,-21.299 21.975999,-21.299 13.017998,0 19.8,10.418999 20.141999,10.952999 2.109001,3.413002 6.586998,4.487 10.016998,2.394997 3.446998,-2.099998 4.539001,-6.597 2.438003,-10.043999 C 68.744003,55.821995 58.023003,38.631996 36.593002,38.631996 15.029,38.632 0,57.562 0,74.547997 0,92.069 14.427,111.591 35.127998,111.591 54.326996,111.591 67.068001,95.850998 79.386993,80.627998 90.78299,66.549995 101.54799,53.249001 115.885,53.249001 c 8.52999,0 14.13499,2.894001 17.13099,8.84 2.59599,5.16 2.59399,10.998996 2.592,13.021999 0,1.160004 -0.61301,6.977997 -3.45101,12.217003 -3.23599,5.968002 -7.83,8.746002 -14.469,8.746002 -13.369,0 -20.592002,-8.690002 -23.312003,-11.962997 -0.707001,-0.851998 -1.216004,-1.464997 -1.895997,-2.046997 -3.061996,-2.623001 -7.678001,-2.270996 -10.305999,0.794998 -2.533997,2.957001 -2.290001,7.352997 0.477997,10.014 0.132003,0.150001 0.291,0.347 0.480003,0.575996 3.544998,4.265999 14.323997,17.239995 34.552999,17.239995 24.586,0 32.537,-23.972997 32.537,-35.677998 0.002,-7.455002 -1.39399,-14.013001 -4.154,-19.496003 -3.87499,-7.7 -12.25897,-16.883998 -30.18298,-16.883998 z"
                   style="fill:#737373;fill-opacity:1;fill-rule:nonzero;stroke:none"
                   id="path234"
                   inkscape:connector-curvature="0" /></g></g></g></g></g></g><g
       id="g236"><g
         id="g238"
         clip-path="url(#clipPath242)"><g
           id="g244"
           clip-path="url(#clipPath248)"><g
             id="g250"
             clip-path="url(#clipPath254)"><g
               id="g256"
               clip-path="url(#clipPath260)"><g
                 id="g262"
                 transform="matrix(10.584566,-21.939871,-21.939871,-10.584566,3132.8149,3781.0718)"><path
                   d="M 115.885,38.631001 C 94.572998,38.631001 80.469002,56.056 68.026001,71.432999 57.395,84.569 47.356003,96.973 35.129002,96.973 c -12.709,0 -20.511999,-13.062005 -20.511999,-22.426003 0,-8.681999 8.559999,-21.299 21.975999,-21.299 13.017998,0 19.8,10.418999 20.141999,10.952999 2.109001,3.413002 6.586998,4.487 10.016998,2.394997 3.446998,-2.099998 4.539001,-6.597 2.438003,-10.043999 C 68.744003,55.821995 58.023003,38.631996 36.593002,38.631996 15.029,38.632 0,57.562 0,74.547997 0,92.069 14.427,111.591 35.127998,111.591 54.326996,111.591 67.068001,95.850998 79.386993,80.627998 90.78299,66.549995 101.54799,53.249001 115.885,53.249001 c 8.52999,0 14.13499,2.894001 17.13099,8.84 2.59599,5.16 2.59399,10.998996 2.592,13.021999 0,1.160004 -0.61301,6.977997 -3.45101,12.217003 -3.23599,5.968002 -7.83,8.746002 -14.469,8.746002 -13.369,0 -20.592002,-8.690002 -23.312003,-11.962997 -0.707001,-0.851998 -1.216004,-1.464997 -1.895997,-2.046997 -3.061996,-2.623001 -7.678001,-2.270996 -10.305999,0.794998 -2.533997,2.957001 -2.290001,7.352997 0.477997,10.014 0.132003,0.150001 0.291,0.347 0.480003,0.575996 3.544998,4.265999 14.323997,17.239995 34.552999,17.239995 24.586,0 32.537,-23.972997 32.537,-35.677998 0.002,-7.455002 -1.39399,-14.013001 -4.154,-19.496003 -3.87499,-7.7 -12.25897,-16.883998 -30.18298,-16.883998 z"
                   style="fill:#737373;fill-opacity:1;fill-rule:nonzero;stroke:none"
                   id="path264"
                   inkscape:connector-curvature="0" /></g></g></g></g></g></g><g
       id="g266"><g
         id="g268"
         clip-path="url(#clipPath272)"><g
           id="g274"
           transform="matrix(24.359617,0,0,-24.359617,617.64978,4360.5811)"><path
             d="M 115.885,38.631001 C 94.572998,38.631001 80.469002,56.056 68.026001,71.432999 57.395,84.569 47.356003,96.973 35.129002,96.973 c -12.709,0 -20.511999,-13.062005 -20.511999,-22.426003 0,-8.681999 8.559999,-21.299 21.975999,-21.299 13.017998,0 19.8,10.418999 20.141999,10.952999 2.109001,3.413002 6.586998,4.487 10.016998,2.394997 3.446998,-2.099998 4.539001,-6.597 2.438003,-10.043999 C 68.744003,55.821995 58.023003,38.631996 36.593002,38.631996 15.029,38.632 0,57.562 0,74.547997 0,92.069 14.427,111.591 35.127998,111.591 54.326996,111.591 67.068001,95.850998 79.386993,80.627998 90.78299,66.549995 101.54799,53.249001 115.885,53.249001 c 8.52999,0 14.13499,2.894001 17.13099,8.84 2.59599,5.16 2.59399,10.998996 2.592,13.021999 0,1.160004 -0.61301,6.977997 -3.45101,12.217003 -3.23599,5.968002 -7.83,8.746002 -14.469,8.746002 -13.369,0 -20.592002,-8.690002 -23.312003,-11.962997 -0.707001,-0.851998 -1.216004,-1.464997 -1.895997,-2.046997 -3.061996,-2.623001 -7.678001,-2.270996 -10.305999,0.794998 -2.533997,2.957001 -2.290001,7.352997 0.477997,10.014 0.132003,0.150001 0.291,0.347 0.480003,0.575996 3.544998,4.265999 14.323997,17.239995 34.552999,17.239995 24.586,0 32.537,-23.972997 32.537,-35.677998 0.002,-7.455002 -1.39399,-14.013001 -4.154,-19.496003 -3.87499,-7.7 -12.25897,-16.883998 -30.18298,-16.883998 z"
             style="fill:#ff914d;fill-opacity:1;fill-rule:nonzero;stroke:none"
             id="path276"
             inkscape:connector-curvature="0" /></g></g></g><g
       id="g278"><g
         id="g280"
         clip-path="url(#clipPath284)"><g
           id="g286"
           transform="matrix(24.713261,0,0,-24.713261,1000.4758,4310.0195)"><path
             d="M 115.885,38.631001 C 94.572998,38.631001 80.469002,56.056 68.026001,71.432999 57.395,84.569 47.356003,96.973 35.129002,96.973 c -12.709,0 -20.511999,-13.062005 -20.511999,-22.426003 0,-8.681999 8.559999,-21.299 21.975999,-21.299 13.017998,0 19.8,10.418999 20.141999,10.952999 2.109001,3.413002 6.586998,4.487 10.016998,2.394997 3.446998,-2.099998 4.539001,-6.597 2.438003,-10.043999 C 68.744003,55.821995 58.023003,38.631996 36.593002,38.631996 15.029,38.632 0,57.562 0,74.547997 0,92.069 14.427,111.591 35.127998,111.591 54.326996,111.591 67.068001,95.850998 79.386993,80.627998 90.78299,66.549995 101.54799,53.249001 115.885,53.249001 c 8.52999,0 14.13499,2.894001 17.13099,8.84 2.59599,5.16 2.59399,10.998996 2.592,13.021999 0,1.160004 -0.61301,6.977997 -3.45101,12.217003 -3.23599,5.968002 -7.83,8.746002 -14.469,8.746002 -13.369,0 -20.592002,-8.690002 -23.312003,-11.962997 -0.707001,-0.851998 -1.216004,-1.464997 -1.895997,-2.046997 -3.061996,-2.623001 -7.678001,-2.270996 -10.305999,0.794998 -2.533997,2.957001 -2.290001,7.352997 0.477997,10.014 0.132003,0.150001 0.291,0.347 0.480003,0.575996 3.544998,4.265999 14.323997,17.239995 34.552999,17.239995 24.586,0 32.537,-23.972997 32.537,-35.677998 0.002,-7.455002 -1.39399,-14.013001 -4.154,-19.496003 -3.87499,-7.7 -12.25897,-16.883998 -30.18298,-16.883998 z"
             style="fill:#38b6ff;fill-opacity:1;fill-rule:nonzero;stroke:none"
             id="path288"
             inkscape:connector-curvature="0" /></g></g></g><g
       id="g290"><g
         id="g292"
         clip-path="url(#clipPath296)"><g
           id="g298"
           transform="matrix(4.6246367,0,0,4.6384544,2983.6072,1549.4009)"><path
             d="M 0,0 H 182.4465 V 167.75525 H 0 Z"
             style="fill:#ffffff;fill-opacity:1;fill-rule:nonzero;stroke:none"
             id="path300"
             inkscape:connector-curvature="0" /></g></g></g><g
       id="g302"><g
         id="g304"
         clip-path="url(#clipPath308)"><g
           id="g310"
           clip-path="url(#clipPath314)"><g
             id="g316"
             clip-path="url(#clipPath320)"><g
               id="g322"
               clip-path="url(#clipPath326)"><g
                 id="g328"
                 transform="matrix(21.38339,13.239282,-13.239282,21.38339,4238.6831,-1028.7022)"><path
                   d="M 115.885,38.631001 C 94.572998,38.631001 80.469002,56.056 68.026001,71.432999 57.395,84.569 47.356003,96.973 35.129002,96.973 c -12.709,0 -20.511999,-13.062005 -20.511999,-22.426003 0,-8.681999 8.559999,-21.299 21.975999,-21.299 13.017998,0 19.8,10.418999 20.141999,10.952999 2.109001,3.413002 6.586998,4.487 10.016998,2.394997 3.446998,-2.099998 4.539001,-6.597 2.438003,-10.043999 C 68.744003,55.821995 58.023003,38.631996 36.593002,38.631996 15.029,38.632 0,57.562 0,74.547997 0,92.069 14.427,111.591 35.127998,111.591 54.326996,111.591 67.068001,95.850998 79.386993,80.627998 90.78299,66.549995 101.54799,53.249001 115.885,53.249001 c 8.52999,0 14.13499,2.894001 17.13099,8.84 2.59599,5.16 2.59399,10.998996 2.592,13.021999 0,1.160004 -0.61301,6.977997 -3.45101,12.217003 -3.23599,5.968002 -7.83,8.746002 -14.469,8.746002 -13.369,0 -20.592002,-8.690002 -23.312003,-11.962997 -0.707001,-0.851998 -1.216004,-1.464997 -1.895997,-2.046997 -3.061996,-2.623001 -7.678001,-2.270996 -10.305999,0.794998 -2.533997,2.957001 -2.290001,7.352997 0.477997,10.014 0.132003,0.150001 0.291,0.347 0.480003,0.575996 3.544998,4.265999 14.323997,17.239995 34.552999,17.239995 24.586,0 32.537,-23.972997 32.537,-35.677998 0.002,-7.455002 -1.39399,-14.013001 -4.154,-19.496003 -3.87499,-7.7 -12.25897,-16.883998 -30.18298,-16.883998 z"
                   style="fill:#38b6ff;fill-opacity:1;fill-rule:nonzero;stroke:none"
                   id="path330"
                   inkscape:connector-curvature="0" /></g></g></g></g></g></g><g
       id="g332"><g
         id="g334"
         clip-path="url(#clipPath338)"><g
           id="g340"
           transform="matrix(6.398283,7.0631056,-7.0732536,6.4074755,4222.9731,-100.426)"><path
             d="m 18.5,66.800003 c -2.4,0 -4.8,-0.5 -7.2,-1.5 -9.3999994,-4 -13.8,-14.799999 -9.8,-24.200001 C 12,16.1 36.299999,0 63.400002,0 90.5,0 114.8,16.1 125.4,41.099998 c 3.99999,9.400002 -0.4,20.3 -9.8,24.200005 -9.4,4 -20.299997,-0.400001 -24.200006,-9.799999 C 86.599998,44.299999 75.599998,37 63.400002,37 51.200005,37 40.300003,44.299999 35.5,55.5 c -2.900002,7 -9.799999,11.300003 -17,11.300003 z"
             style="fill:#38b6ff;fill-opacity:1;fill-rule:nonzero;stroke:none"
             id="path342"
             inkscape:connector-curvature="0" /></g></g></g><g
       id="g344"><g
         id="g346"
         clip-path="url(#clipPath350)"><g
           id="g352"
           clip-path="url(#clipPath356)"><g
             id="g358"
             clip-path="url(#clipPath362)"><g
               id="g364"
               clip-path="url(#clipPath368)"><g
                 id="g370"
                 transform="matrix(3.2189927,-24.145992,24.145992,3.2189927,32.202133,3689.1045)"><path
                   d="M 115.885,38.631001 C 94.572998,38.631001 80.469002,56.056 68.026001,71.432999 57.395,84.569 47.356003,96.973 35.129002,96.973 c -12.709,0 -20.511999,-13.062005 -20.511999,-22.426003 0,-8.681999 8.559999,-21.299 21.975999,-21.299 13.017998,0 19.8,10.418999 20.141999,10.952999 2.109001,3.413002 6.586998,4.487 10.016998,2.394997 3.446998,-2.099998 4.539001,-6.597 2.438003,-10.043999 C 68.744003,55.821995 58.023003,38.631996 36.593002,38.631996 15.029,38.632 0,57.562 0,74.547997 0,92.069 14.427,111.591 35.127998,111.591 54.326996,111.591 67.068001,95.850998 79.386993,80.627998 90.78299,66.549995 101.54799,53.249001 115.885,53.249001 c 8.52999,0 14.13499,2.894001 17.13099,8.84 2.59599,5.16 2.59399,10.998996 2.592,13.021999 0,1.160004 -0.61301,6.977997 -3.45101,12.217003 -3.23599,5.968002 -7.83,8.746002 -14.469,8.746002 -13.369,0 -20.592002,-8.690002 -23.312003,-11.962997 -0.707001,-0.851998 -1.216004,-1.464997 -1.895997,-2.046997 -3.061996,-2.623001 -7.678001,-2.270996 -10.305999,0.794998 -2.533997,2.957001 -2.290001,7.352997 0.477997,10.014 0.132003,0.150001 0.291,0.347 0.480003,0.575996 3.544998,4.265999 14.323997,17.239995 34.552999,17.239995 24.586,0 32.537,-23.972997 32.537,-35.677998 0.002,-7.455002 -1.39399,-14.013001 -4.154,-19.496003 -3.87499,-7.7 -12.25897,-16.883998 -30.18298,-16.883998 z"
                   style="fill:#ff914d;fill-opacity:1;fill-rule:nonzero;stroke:none"
                   id="path372"
                   inkscape:connector-curvature="0" /></g></g></g></g></g></g><g
       id="g374"><g
         id="g376"
         clip-path="url(#clipPath380)"><g
           id="g382"
           clip-path="url(#clipPath386)"><g
             id="g388"
             clip-path="url(#clipPath392)"><g
               id="g394"
               clip-path="url(#clipPath398)"><g
                 id="g400"
                 transform="matrix(5.1726918,-23.804079,23.804079,5.1726918,148.20067,3799.8899)"><path
                   d="M 115.885,38.631001 C 94.572998,38.631001 80.469002,56.056 68.026001,71.432999 57.395,84.569 47.356003,96.973 35.129002,96.973 c -12.709,0 -20.511999,-13.062005 -20.511999,-22.426003 0,-8.681999 8.559999,-21.299 21.975999,-21.299 13.017998,0 19.8,10.418999 20.141999,10.952999 2.109001,3.413002 6.586998,4.487 10.016998,2.394997 3.446998,-2.099998 4.539001,-6.597 2.438003,-10.043999 C 68.744003,55.821995 58.023003,38.631996 36.593002,38.631996 15.029,38.632 0,57.562 0,74.547997 0,92.069 14.427,111.591 35.127998,111.591 54.326996,111.591 67.068001,95.850998 79.386993,80.627998 90.78299,66.549995 101.54799,53.249001 115.885,53.249001 c 8.52999,0 14.13499,2.894001 17.13099,8.84 2.59599,5.16 2.59399,10.998996 2.592,13.021999 0,1.160004 -0.61301,6.977997 -3.45101,12.217003 -3.23599,5.968002 -7.83,8.746002 -14.469,8.746002 -13.369,0 -20.592002,-8.690002 -23.312003,-11.962997 -0.707001,-0.851998 -1.216004,-1.464997 -1.895997,-2.046997 -3.061996,-2.623001 -7.678001,-2.270996 -10.305999,0.794998 -2.533997,2.957001 -2.290001,7.352997 0.477997,10.014 0.132003,0.150001 0.291,0.347 0.480003,0.575996 3.544998,4.265999 14.323997,17.239995 34.552999,17.239995 24.586,0 32.537,-23.972997 32.537,-35.677998 0.002,-7.455002 -1.39399,-14.013001 -4.154,-19.496003 -3.87499,-7.7 -12.25897,-16.883998 -30.18298,-16.883998 z"
                   style="fill:#ff914d;fill-opacity:1;fill-rule:nonzero;stroke:none"
                   id="path402"
                   inkscape:connector-curvature="0" /></g></g></g></g></g></g><g
       id="g404"><g
         id="g406"
         clip-path="url(#clipPath410)"><g
           id="g412"
           clip-path="url(#clipPath416)"><g
             id="g418"
             clip-path="url(#clipPath422)"><g
               id="g424"
               clip-path="url(#clipPath428)"><g
                 id="g430"
                 transform="matrix(24.021694,4.0434022,-4.0434022,24.021694,1517.3138,1414.3117)"><path
                   d="M 115.885,38.631001 C 94.572998,38.631001 80.469002,56.056 68.026001,71.432999 57.395,84.569 47.356003,96.973 35.129002,96.973 c -12.709,0 -20.511999,-13.062005 -20.511999,-22.426003 0,-8.681999 8.559999,-21.299 21.975999,-21.299 13.017998,0 19.8,10.418999 20.141999,10.952999 2.109001,3.413002 6.586998,4.487 10.016998,2.394997 3.446998,-2.099998 4.539001,-6.597 2.438003,-10.043999 C 68.744003,55.821995 58.023003,38.631996 36.593002,38.631996 15.029,38.632 0,57.562 0,74.547997 0,92.069 14.427,111.591 35.127998,111.591 54.326996,111.591 67.068001,95.850998 79.386993,80.627998 90.78299,66.549995 101.54799,53.249001 115.885,53.249001 c 8.52999,0 14.13499,2.894001 17.13099,8.84 2.59599,5.16 2.59399,10.998996 2.592,13.021999 0,1.160004 -0.61301,6.977997 -3.45101,12.217003 -3.23599,5.968002 -7.83,8.746002 -14.469,8.746002 -13.369,0 -20.592002,-8.690002 -23.312003,-11.962997 -0.707001,-0.851998 -1.216004,-1.464997 -1.895997,-2.046997 -3.061996,-2.623001 -7.678001,-2.270996 -10.305999,0.794998 -2.533997,2.957001 -2.290001,7.352997 0.477997,10.014 0.132003,0.150001 0.291,0.347 0.480003,0.575996 3.544998,4.265999 14.323997,17.239995 34.552999,17.239995 24.586,0 32.537,-23.972997 32.537,-35.677998 0.002,-7.455002 -1.39399,-14.013001 -4.154,-19.496003 -3.87499,-7.7 -12.25897,-16.883998 -30.18298,-16.883998 z"
                   style="fill:#ff914d;fill-opacity:1;fill-rule:nonzero;stroke:none"
                   id="path432"
                   inkscape:connector-curvature="0" /></g></g></g></g></g></g><g
       id="g434"><g
         id="g436"
         clip-path="url(#clipPath440)"><g
           id="g442"
           clip-path="url(#clipPath446)"><g
             id="g448"
             clip-path="url(#clipPath452)"><g
               id="g454"
               clip-path="url(#clipPath458)"><g
                 id="g460"
                 transform="matrix(4.547142,-24.291328,24.291328,4.547142,924.95972,4234.4902)"><path
                   d="M 115.885,38.631001 C 94.572998,38.631001 80.469002,56.056 68.026001,71.432999 57.395,84.569 47.356003,96.973 35.129002,96.973 c -12.709,0 -20.511999,-13.062005 -20.511999,-22.426003 0,-8.681999 8.559999,-21.299 21.975999,-21.299 13.017998,0 19.8,10.418999 20.141999,10.952999 2.109001,3.413002 6.586998,4.487 10.016998,2.394997 3.446998,-2.099998 4.539001,-6.597 2.438003,-10.043999 C 68.744003,55.821995 58.023003,38.631996 36.593002,38.631996 15.029,38.632 0,57.562 0,74.547997 0,92.069 14.427,111.591 35.127998,111.591 54.326996,111.591 67.068001,95.850998 79.386993,80.627998 90.78299,66.549995 101.54799,53.249001 115.885,53.249001 c 8.52999,0 14.13499,2.894001 17.13099,8.84 2.59599,5.16 2.59399,10.998996 2.592,13.021999 0,1.160004 -0.61301,6.977997 -3.45101,12.217003 -3.23599,5.968002 -7.83,8.746002 -14.469,8.746002 -13.369,0 -20.592002,-8.690002 -23.312003,-11.962997 -0.707001,-0.851998 -1.216004,-1.464997 -1.895997,-2.046997 -3.061996,-2.623001 -7.678001,-2.270996 -10.305999,0.794998 -2.533997,2.957001 -2.290001,7.352997 0.477997,10.014 0.132003,0.150001 0.291,0.347 0.480003,0.575996 3.544998,4.265999 14.323997,17.239995 34.552999,17.239995 24.586,0 32.537,-23.972997 32.537,-35.677998 0.002,-7.455002 -1.39399,-14.013001 -4.154,-19.496003 -3.87499,-7.7 -12.25897,-16.883998 -30.18298,-16.883998 z"
                   style="fill:#38b6ff;fill-opacity:1;fill-rule:nonzero;stroke:none"
                   id="path462"
                   inkscape:connector-curvature="0" /></g></g></g></g></g></g><g
       id="g464"><g
         id="g466"
         clip-path="url(#clipPath470)"><g
           id="g472"
           clip-path="url(#clipPath476)"><g
             id="g478"
             clip-path="url(#clipPath482)"><g
               id="g484"
               clip-path="url(#clipPath488)"><g
                 id="g490"
                 transform="matrix(10.584566,-21.939871,-21.939871,-10.584566,3187.1045,3898.6995)"><path
                   d="M 115.885,38.631001 C 94.572998,38.631001 80.469002,56.056 68.026001,71.432999 57.395,84.569 47.356003,96.973 35.129002,96.973 c -12.709,0 -20.511999,-13.062005 -20.511999,-22.426003 0,-8.681999 8.559999,-21.299 21.975999,-21.299 13.017998,0 19.8,10.418999 20.141999,10.952999 2.109001,3.413002 6.586998,4.487 10.016998,2.394997 3.446998,-2.099998 4.539001,-6.597 2.438003,-10.043999 C 68.744003,55.821995 58.023003,38.631996 36.593002,38.631996 15.029,38.632 0,57.562 0,74.547997 0,92.069 14.427,111.591 35.127998,111.591 54.326996,111.591 67.068001,95.850998 79.386993,80.627998 90.78299,66.549995 101.54799,53.249001 115.885,53.249001 c 8.52999,0 14.13499,2.894001 17.13099,8.84 2.59599,5.16 2.59399,10.998996 2.592,13.021999 0,1.160004 -0.61301,6.977997 -3.45101,12.217003 -3.23599,5.968002 -7.83,8.746002 -14.469,8.746002 -13.369,0 -20.592002,-8.690002 -23.312003,-11.962997 -0.707001,-0.851998 -1.216004,-1.464997 -1.895997,-2.046997 -3.061996,-2.623001 -7.678001,-2.270996 -10.305999,0.794998 -2.533997,2.957001 -2.290001,7.352997 0.477997,10.014 0.132003,0.150001 0.291,0.347 0.480003,0.575996 3.544998,4.265999 14.323997,17.239995 34.552999,17.239995 24.586,0 32.537,-23.972997 32.537,-35.677998 0.002,-7.455002 -1.39399,-14.013001 -4.154,-19.496003 -3.87499,-7.7 -12.25897,-16.883998 -30.18298,-16.883998 z"
                   style="fill:#38b6ff;fill-opacity:1;fill-rule:nonzero;stroke:none"
                   id="path492"
                   inkscape:connector-curvature="0" /></g></g></g></g></g></g></g></svg>